<svg version="1.1" id="Layer_1" xmlns="http://www.w3.org/2000/svg" xmlns:xlink="http://www.w3.org/1999/xlink" x="0px" y="0px"
	 width="100%" viewBox="0 0 289 308" enable-background="new 0 0 289 308" xml:space="preserve">
<path fill="#FFFFFF" opacity="1.000000" stroke="none" 
	d="
M236.000000,309.000000 
	C175.312439,309.000000 114.624878,309.000000 53.758400,308.695007 
	C53.128803,307.939911 52.755432,307.251495 52.215572,307.076324 
	C46.387520,305.185760 43.396698,301.288940 42.506176,295.153900 
	C41.142673,285.760376 36.813026,277.026367 36.803505,267.213623 
	C36.797939,261.482666 34.869331,255.771790 34.027733,250.019440 
	C32.546188,239.893036 31.345121,229.725174 29.823414,219.605209 
	C27.993143,207.433167 25.871862,195.304962 24.024914,183.135269 
	C22.538601,173.341827 21.381233,163.498276 19.878939,153.707504 
	C18.381716,143.949753 16.682364,134.222076 14.988391,124.495712 
	C13.050389,113.368202 11.024493,102.255981 9.028649,91.138573 
	C8.326183,87.225639 7.599680,83.317009 6.858537,79.266418 
	C98.859192,79.266418 190.383469,79.266418 282.221039,79.266418 
	C280.644836,86.652885 278.941956,93.686707 277.675537,100.798256 
	C275.943207,110.526306 274.484894,120.304771 273.016296,130.077728 
	C271.545013,139.868774 270.259857,149.687775 268.793304,159.479568 
	C267.257355,169.734924 265.608734,179.973465 263.997894,190.217545 
	C262.789734,197.900711 261.519043,205.574295 260.355316,213.264130 
	C258.535065,225.292450 256.714325,237.321411 255.024307,249.368408 
	C253.940979,257.090637 253.430832,264.907135 252.041580,272.568542 
	C250.697113,279.983032 248.418060,287.222961 246.808838,294.596161 
	C245.531631,300.448090 243.319473,305.310028 236.949463,307.088623 
	C236.490845,307.216705 236.309998,308.339630 236.000000,309.000000 
M135.000000,205.500000 
	C135.000000,217.815659 134.765640,230.138382 135.137650,242.442795 
	C135.254776,246.317322 136.489502,250.375687 138.119919,253.934250 
	C140.394485,258.898743 147.578629,258.821381 149.899750,253.825424 
	C151.483551,250.416412 152.852997,246.517410 152.870392,242.830658 
	C153.072906,199.893372 153.073242,156.954437 152.869736,114.017159 
	C152.852280,110.331154 151.250763,106.560638 149.934906,102.995537 
	C148.195053,98.281647 139.881943,98.006752 138.056442,103.108887 
	C136.722794,106.836372 135.163177,110.774605 135.132339,114.630325 
	C134.892700,144.585327 135.000000,174.543091 135.000000,205.500000 
M96.000175,230.272125 
	C95.667053,225.690613 95.281494,221.112198 95.011024,216.526978 
	C94.313492,204.701508 93.684700,192.871964 92.991333,181.046234 
	C92.703018,176.128830 92.361992,171.213669 91.972954,166.303177 
	C90.666107,149.807556 89.391106,133.308899 87.953674,116.824486 
	C87.605347,112.829910 86.996140,108.799866 85.947197,104.938148 
	C84.348312,99.051765 81.345055,96.801643 76.607323,98.101532 
	C72.238335,99.300240 70.772934,102.909752 70.998177,107.259796 
	C71.670975,120.252846 72.308243,133.247803 73.018044,146.238815 
	C73.259552,150.658844 73.640251,155.072372 74.018059,159.483658 
	C75.330978,174.813416 76.793732,190.131516 77.959488,205.472305 
	C78.831749,216.950928 79.155182,228.472504 80.107025,239.943085 
	C80.404709,243.530472 81.829262,247.054337 82.961380,250.534607 
	C84.256050,254.514618 87.609016,256.096741 91.113708,254.782486 
	C93.461563,253.902069 96.498611,251.096954 96.683372,248.935593 
	C97.182854,243.092575 96.323112,237.133362 96.000175,230.272125 
M216.999298,105.059891 
	C216.036758,101.195587 214.533035,98.102142 209.719162,97.938332 
	C204.859711,97.772964 203.155579,100.843895 202.029160,104.632927 
	C201.209747,107.389229 200.301758,110.197182 200.063522,113.035011 
	C198.924530,126.603134 197.921753,140.184113 197.023972,153.770645 
	C196.242813,165.592117 195.686020,177.428253 194.990311,189.255569 
	C194.710785,194.007568 194.321060,198.753067 193.988388,203.501984 
	C192.990448,217.748230 191.964813,231.992661 191.019226,246.242386 
	C190.740875,250.437119 192.494339,253.777435 196.608994,254.902618 
	C201.136322,256.140656 204.749802,253.852448 205.866867,248.548813 
	C207.098587,242.700745 207.441513,236.652802 207.985062,230.674957 
	C209.378510,215.350037 210.692657,200.017792 211.990433,184.684387 
	C212.709290,176.190857 213.452515,167.696533 213.972336,159.189590 
	C215.056274,141.450806 215.999146,123.703400 216.999298,105.059891 
z"/>
<path fill="#FFFFFF" opacity="1.000000" stroke="none" 
	d="
M290.000000,60.000000 
	C290.000000,64.689255 290.000000,69.378510 289.531342,74.533882 
	C195.604416,75.000000 102.146149,75.007957 8.687914,74.958092 
	C6.125106,74.956718 3.562631,74.333328 1.000000,74.000000 
	C1.000000,69.975456 1.000000,65.950912 1.338129,61.760593 
	C2.103611,61.112759 2.851579,60.666351 2.909752,60.143238 
	C3.663657,53.363708 4.447376,46.582626 4.944674,39.781540 
	C5.183346,36.517460 6.538699,35.068634 9.805301,34.970451 
	C17.881365,34.727703 25.951433,34.292130 34.026573,34.010307 
	C44.761040,33.635677 55.496479,33.266827 66.234306,33.015472 
	C82.959641,32.623959 99.687286,32.331264 116.414093,32.003727 
	C117.850960,31.975588 119.288864,32.000000 121.000000,32.000000 
	C121.000000,29.690237 120.859505,27.876619 121.023933,26.091084 
	C121.801903,17.643190 118.340706,8.513824 125.000000,1.000000 
	C137.687561,1.000000 150.375122,1.000000 163.241119,1.318362 
	C166.917099,4.207316 168.374603,7.465745 168.101974,11.975548 
	C167.704895,18.543636 168.000000,25.153572 168.000000,31.484724 
	C178.576050,32.007526 188.607193,32.592499 198.646057,32.976074 
	C210.039902,33.411423 221.439407,33.717056 232.838638,33.987850 
	C248.893173,34.369228 264.948975,34.712414 281.005920,34.964825 
	C284.586029,35.021103 285.841583,36.614094 286.073120,40.088707 
	C286.484161,46.256405 287.297028,52.400280 288.093964,58.534348 
	C288.166901,59.095966 289.338531,59.514843 290.000000,60.000000 
z"/>
<path fill="#000000" opacity="0.000000" stroke="none" 
	d="
M1.000000,74.468658 
	C3.562631,74.333328 6.125106,74.956718 8.687914,74.958092 
	C102.146149,75.007957 195.604416,75.000000 289.531342,75.000000 
	C290.000000,152.881363 290.000000,230.762741 290.000000,309.000000 
	C272.314026,309.000000 254.625671,309.000000 236.468658,309.000000 
	C236.309998,308.339630 236.490845,307.216705 236.949463,307.088623 
	C243.319473,305.310028 245.531631,300.448090 246.808838,294.596161 
	C248.418060,287.222961 250.697113,279.983032 252.041580,272.568542 
	C253.430832,264.907135 253.940979,257.090637 255.024307,249.368408 
	C256.714325,237.321411 258.535065,225.292450 260.355316,213.264130 
	C261.519043,205.574295 262.789734,197.900711 263.997894,190.217545 
	C265.608734,179.973465 267.257355,169.734924 268.793304,159.479568 
	C270.259857,149.687775 271.545013,139.868774 273.016296,130.077728 
	C274.484894,120.304771 275.943207,110.526306 277.675537,100.798256 
	C278.941956,93.686707 280.644836,86.652885 282.221039,79.266418 
	C190.383469,79.266418 98.859192,79.266418 6.858537,79.266418 
	C7.599680,83.317009 8.326183,87.225639 9.028649,91.138573 
	C11.024493,102.255981 13.050389,113.368202 14.988391,124.495712 
	C16.682364,134.222076 18.381716,143.949753 19.878939,153.707504 
	C21.381233,163.498276 22.538601,173.341827 24.024914,183.135269 
	C25.871862,195.304962 27.993143,207.433167 29.823414,219.605209 
	C31.345121,229.725174 32.546188,239.893036 34.027733,250.019440 
	C34.869331,255.771790 36.797939,261.482666 36.803505,267.213623 
	C36.813026,277.026367 41.142673,285.760376 42.506176,295.153900 
	C43.396698,301.288940 46.387520,305.185760 52.215572,307.076324 
	C52.755432,307.251495 53.128803,307.939911 53.289742,308.695007 
	C35.693119,309.000000 18.386240,309.000000 1.000000,309.000000 
	C1.000000,230.979126 1.000000,152.958221 1.000000,74.468658 
z"/>
<path fill="#000000" opacity="0.000000" stroke="none" 
	d="
M290.000000,59.531342 
	C289.338531,59.514843 288.166901,59.095966 288.093964,58.534348 
	C287.297028,52.400280 286.484161,46.256405 286.073120,40.088707 
	C285.841583,36.614094 284.586029,35.021103 281.005920,34.964825 
	C264.948975,34.712414 248.893173,34.369228 232.838638,33.987850 
	C221.439407,33.717056 210.039902,33.411423 198.646057,32.976074 
	C188.607193,32.592499 178.576050,32.007526 168.000000,31.484724 
	C168.000000,25.153572 167.704895,18.543636 168.101974,11.975548 
	C168.374603,7.465745 166.917099,4.207316 163.709778,1.318362 
	C205.900452,1.000000 247.800903,1.000000 290.000000,1.000000 
	C290.000000,20.353205 290.000000,39.707943 290.000000,59.531342 
z"/>
<path fill="#000000" opacity="0.000000" stroke="none" 
	d="
M124.531342,1.000000 
	C118.340706,8.513824 121.801903,17.643190 121.023933,26.091084 
	C120.859505,27.876619 121.000000,29.690237 121.000000,32.000000 
	C119.288864,32.000000 117.850960,31.975588 116.414093,32.003727 
	C99.687286,32.331264 82.959641,32.623959 66.234306,33.015472 
	C55.496479,33.266827 44.761040,33.635677 34.026573,34.010307 
	C25.951433,34.292130 17.881365,34.727703 9.805301,34.970451 
	C6.538699,35.068634 5.183346,36.517460 4.944674,39.781540 
	C4.447376,46.582626 3.663657,53.363708 2.909752,60.143238 
	C2.851579,60.666351 2.103611,61.112759 1.338129,61.297409 
	C1.000000,41.047661 1.000000,21.095322 1.000000,1.000000 
	C42.020790,1.000000 83.041733,1.000000 124.531342,1.000000 
z"/>
<path fill="#000000" opacity="0.000000" stroke="none" 
	d="
M135.000000,205.000000 
	C135.000000,174.543091 134.892700,144.585327 135.132339,114.630325 
	C135.163177,110.774605 136.722794,106.836372 138.056442,103.108887 
	C139.881943,98.006752 148.195053,98.281647 149.934906,102.995537 
	C151.250763,106.560638 152.852280,110.331154 152.869736,114.017159 
	C153.073242,156.954437 153.072906,199.893372 152.870392,242.830658 
	C152.852997,246.517410 151.483551,250.416412 149.899750,253.825424 
	C147.578629,258.821381 140.394485,258.898743 138.119919,253.934250 
	C136.489502,250.375687 135.254776,246.317322 135.137650,242.442795 
	C134.765640,230.138382 135.000000,217.815659 135.000000,205.000000 
z"/>
<path fill="#000000" opacity="0.000000" stroke="none" 
	d="
M96.001381,230.746185 
	C96.323112,237.133362 97.182854,243.092575 96.683372,248.935593 
	C96.498611,251.096954 93.461563,253.902069 91.113708,254.782486 
	C87.609016,256.096741 84.256050,254.514618 82.961380,250.534607 
	C81.829262,247.054337 80.404709,243.530472 80.107025,239.943085 
	C79.155182,228.472504 78.831749,216.950928 77.959488,205.472305 
	C76.793732,190.131516 75.330978,174.813416 74.018059,159.483658 
	C73.640251,155.072372 73.259552,150.658844 73.018044,146.238815 
	C72.308243,133.247803 71.670975,120.252846 70.998177,107.259796 
	C70.772934,102.909752 72.238335,99.300240 76.607323,98.101532 
	C81.345055,96.801643 84.348312,99.051765 85.947197,104.938148 
	C86.996140,108.799866 87.605347,112.829910 87.953674,116.824486 
	C89.391106,133.308899 90.666107,149.807556 91.972954,166.303177 
	C92.361992,171.213669 92.703018,176.128830 92.991333,181.046234 
	C93.684700,192.871964 94.313492,204.701508 95.011024,216.526978 
	C95.281494,221.112198 95.667053,225.690613 96.001381,230.746185 
z"/>
<path fill="#000000" opacity="0.000000" stroke="none" 
	d="
M216.999634,105.509712 
	C215.999146,123.703400 215.056274,141.450806 213.972336,159.189590 
	C213.452515,167.696533 212.709290,176.190857 211.990433,184.684387 
	C210.692657,200.017792 209.378510,215.350037 207.985062,230.674957 
	C207.441513,236.652802 207.098587,242.700745 205.866867,248.548813 
	C204.749802,253.852448 201.136322,256.140656 196.608994,254.902618 
	C192.494339,253.777435 190.740875,250.437119 191.019226,246.242386 
	C191.964813,231.992661 192.990448,217.748230 193.988388,203.501984 
	C194.321060,198.753067 194.710785,194.007568 194.990311,189.255569 
	C195.686020,177.428253 196.242813,165.592117 197.023972,153.770645 
	C197.921753,140.184113 198.924530,126.603134 200.063522,113.035011 
	C200.301758,110.197182 201.209747,107.389229 202.029160,104.632927 
	C203.155579,100.843895 204.859711,97.772964 209.719162,97.938332 
	C214.533035,98.102142 216.036758,101.195587 216.999634,105.509712 
z"/>
</svg>